<svg xmlns="http://www.w3.org/2000/svg" viewBox="0 0 512 512" role="img" aria-label="Penguin favicon">
  <title>Penguin favicon</title>
  <defs>
    <linearGradient id="bg" x1="0" y1="0" x2="1" y2="1">
      <stop offset="0%" stop-color="#7dd3fc"/>
      <stop offset="100%" stop-color="#2563eb"/>
    </linearGradient>
  </defs>
  <rect x="32" y="32" width="448" height="448" rx="112" fill="url(#bg)"/>
  <ellipse cx="256" cy="286" rx="122" ry="144" fill="#0f172a"/>
  <ellipse cx="256" cy="308" rx="82" ry="106" fill="#f8fafc"/>
  <ellipse cx="218" cy="216" rx="20" ry="24" fill="#f8fafc"/>
  <ellipse cx="294" cy="216" rx="20" ry="24" fill="#f8fafc"/>
  <circle cx="218" cy="220" r="8" fill="#0f172a"/>
  <circle cx="294" cy="220" r="8" fill="#0f172a"/>
  <path d="M256 238l-32 24h64z" fill="#f59e0b"/>
  <path d="M176 278c-32 8-48 34-44 72 24-8 42-24 54-52z" fill="#0f172a"/>
  <path d="M336 278c32 8 48 34 44 72-24-8-42-24-54-52z" fill="#0f172a"/>
  <ellipse cx="214" cy="402" rx="34" ry="18" fill="#f59e0b"/>
  <ellipse cx="298" cy="402" rx="34" ry="18" fill="#f59e0b"/>
</svg>
